<?xml version="1.0" standalone="no"?>
<!DOCTYPE svg PUBLIC "-//W3C//DTD SVG 20010904//EN"
 "http://www.w3.org/TR/2001/REC-SVG-20010904/DTD/svg10.dtd">
<svg version="1.0" xmlns="http://www.w3.org/2000/svg"
 width="512.000000pt" height="512.000000pt" viewBox="0 0 512.000000 512.000000"
 preserveAspectRatio="xMidYMid meet">

<g transform="translate(0.000000,512.000000) scale(0.100000,-0.100000)"
fill="#000000" stroke="none">
<path d="M2456 4900 c-149 -121 -280 -306 -337 -481 l-32 -99 -61 58 c-131
125 -308 213 -516 257 -102 21 -142 20 -167 -7 -28 -30 -79 -187 -99 -302 -19
-109 -14 -330 10 -416 8 -30 14 -56 12 -57 -2 -2 -32 4 -67 12 -102 25 -278
30 -389 11 -127 -22 -289 -74 -317 -102 -29 -29 -29 -53 1 -184 49 -214 131
-371 269 -517 29 -30 36 -44 26 -47 -219 -66 -330 -128 -473 -265 -107 -103
-156 -166 -156 -201 0 -33 46 -95 141 -189 116 -115 287 -220 419 -257 30 -8
61 -17 68 -20 9 -3 -6 -26 -43 -66 -74 -82 -117 -148 -171 -263 -45 -95 -89
-244 -100 -341 -6 -46 -4 -55 17 -76 30 -30 186 -82 310 -104 111 -19 296 -14
398 11 35 8 65 14 67 12 2 -1 -6 -48 -17 -102 -37 -179 -16 -396 57 -593 36
-98 53 -109 147 -94 227 35 432 133 589 280 33 30 49 40 52 31 3 -8 12 -39 20
-69 49 -175 199 -387 369 -522 80 -63 105 -54 255 94 149 148 221 273 288 497
3 9 22 -3 57 -35 140 -132 311 -218 519 -263 123 -27 144 -26 172 2 28 28 80
190 102 317 19 111 14 287 -11 389 -8 35 -14 66 -12 68 2 2 33 -4 68 -12 101
-25 288 -30 396 -11 122 21 276 71 310 100 l27 24 -11 78 c-34 229 -137 447
-281 596 -49 51 -50 49 28 68 134 34 314 146 439 273 147 149 156 174 92 254
-58 73 -188 194 -260 243 -75 50 -207 113 -271 130 -25 6 -51 13 -58 16 -9 2
8 27 48 71 138 151 242 383 266 592 6 54 4 62 -17 83 -31 31 -193 84 -319 104
-111 19 -289 14 -389 -11 -35 -8 -66 -13 -68 -11 -3 3 3 38 12 78 44 194 22
436 -58 636 -35 86 -50 91 -187 64 -209 -41 -392 -130 -527 -256 -41 -38 -64
-53 -67 -45 -3 8 -14 46 -27 84 -57 180 -194 371 -362 506 -68 55 -90 52 -181
-21z m157 -150 c128 -113 232 -289 272 -460 28 -121 14 -302 -32 -425 -21 -57
-2 -53 -185 -38 -89 7 -237 3 -333 -9 -13 -2 -20 4 -22 17 -11 66 -39 166 -64
227 -16 39 -29 89 -29 113 0 114 52 270 131 391 51 77 185 224 205 224 6 0 32
-18 57 -40z m-993 -298 c148 -52 300 -155 383 -260 77 -99 144 -252 161 -373
l7 -46 -42 -12 c-72 -22 -252 -119 -329 -179 l-74 -57 -72 75 c-40 41 -97 93
-128 115 -43 31 -61 53 -81 97 -80 178 -90 412 -24 623 l19 63 63 -14 c34 -7
87 -22 117 -32z m2079 -16 c31 -102 42 -180 42 -300 0 -182 -49 -331 -154
-469 -49 -64 -148 -157 -168 -157 -5 0 -34 20 -64 45 -30 24 -81 61 -113 81
-63 41 -232 124 -252 124 -7 0 -10 7 -7 18 2 9 16 55 30 102 13 47 28 114 32
150 4 36 16 80 27 98 76 125 224 242 390 309 49 20 186 61 210 62 4 1 16 -28
27 -63z m-2519 -717 c97 -24 204 -77 283 -140 60 -48 147 -142 147 -160 0 -5
-24 -38 -52 -74 -63 -77 -135 -200 -174 -293 -15 -37 -29 -68 -30 -70 -1 -2
-39 8 -84 23 -46 14 -122 31 -171 39 -101 15 -132 32 -228 129 -70 71 -108
124 -155 217 -33 63 -77 191 -89 257 -6 32 -6 32 59 52 166 52 337 58 494 20z
m3133 10 c33 -6 88 -19 123 -30 73 -23 71 -11 32 -144 -87 -302 -295 -514
-577 -586 -102 -26 -117 -25 -126 9 -9 39 -80 188 -117 247 -18 27 -53 77 -79
111 l-47 61 71 63 c38 35 90 91 114 125 51 68 75 84 188 120 129 42 262 50
418 24z m-3085 -864 l84 -28 -7 -46 c-16 -103 -21 -232 -13 -339 5 -63 10
-119 11 -125 1 -6 -7 -12 -18 -14 -72 -12 -167 -39 -226 -64 -81 -35 -132 -37
-245 -9 -100 23 -172 55 -262 113 -79 51 -222 185 -222 207 0 24 153 164 234
215 156 97 265 126 451 121 109 -3 144 -8 213 -31z m3148 -4 c47 -16 122 -51
166 -78 85 -50 248 -197 248 -223 0 -8 -33 -47 -73 -86 -244 -239 -556 -314
-860 -207 l-49 18 7 45 c16 102 21 231 13 338 -5 63 -10 119 -11 125 -1 6 21
14 51 19 60 9 191 51 231 74 41 23 172 12 277 -25z m-3021 -718 c19 -81 138
-293 213 -382 l28 -34 -82 -79 c-45 -44 -97 -101 -116 -128 -28 -42 -44 -54
-105 -80 -183 -77 -400 -84 -609 -19 -63 20 -63 20 -57 52 12 66 56 194 89
257 48 94 85 146 156 218 102 103 209 165 353 202 101 27 121 26 130 -7z
m2492 -28 c40 -13 112 -30 160 -36 102 -14 118 -21 195 -86 138 -116 254 -324
291 -520 6 -32 6 -32 -57 -52 -102 -31 -183 -43 -301 -42 -182 0 -345 56 -476
161 -63 50 -149 144 -149 161 0 5 20 34 45 64 24 30 61 81 81 113 40 61 124
232 124 251 0 15 5 14 87 -14z m-2082 -550 c30 -24 81 -61 113 -81 61 -40 232
-124 251 -124 15 0 14 -5 -14 -88 -14 -40 -30 -114 -37 -164 -14 -104 -34
-142 -126 -234 -119 -119 -304 -214 -479 -247 -32 -6 -32 -6 -52 57 -31 102
-43 183 -42 301 1 184 55 343 162 478 49 61 142 147 160 147 5 0 34 -20 64
-45z m1835 -167 c42 -28 54 -44 80 -105 44 -105 61 -191 61 -312 1 -116 -11
-196 -42 -297 -19 -61 -21 -64 -47 -58 -361 78 -603 292 -683 603 -26 102 -25
117 9 126 80 19 292 138 381 213 l34 28 79 -82 c44 -45 101 -97 128 -116z
m-1132 -107 c80 -5 262 1 318 11 13 2 20 -13 34 -82 10 -47 32 -119 49 -160
37 -88 39 -132 11 -246 -23 -100 -55 -172 -114 -263 -53 -82 -182 -221 -205
-221 -26 0 -172 161 -224 248 -27 44 -63 120 -80 169 -30 84 -32 96 -32 238 0
139 2 157 29 239 l29 88 46 -7 c25 -4 88 -10 139 -14z"/>
</g>
</svg>
