<?xml version="1.0" encoding="UTF-8" standalone="no"?>
<svg version="1.1" width="400" height="560" xmlns="http://www.w3.org/2000/svg" xmlns:xlink="http://www.w3.org/1999/xlink">

<path style="fill:#25b5e9;stroke:#d3ac67;stroke-width:12px" 
	d="m6,6 v388 c 0.7,29.4 23.6,46.3 47.3,58.1 c 85.7,43.2 115.2,61.7 146.7,98.3 
	c 31.5,-36.6 61,-55.1 146.7,-98.3 c 23.7,-11.8 46.6,-28.7 47.3,-58.1 v-388 h-388 z" />
<line style="stroke:#d3ac67;stroke-width:12px" x1="6" y1="100" x2="394" y2="100"/>

<!--rays-->
<defs><path id="ray" fill="#d3ac67" d="m204,175 h-8 l-3,-42 h14 l-3,42 z"/></defs>
<g id="ray9">
  <g id="ray3">
    <use xlink:href="#ray" transform="rotate(8 200,280)"/>
    <use xlink:href="#ray" transform="rotate(16 200,280)"/>
    <use xlink:href="#ray" transform="rotate(24 200,280)"/>
  </g>
  <use xlink:href="#ray3" transform="rotate(24 200,280)"/>
  <use xlink:href="#ray3" transform="rotate(48 200,280)"/>
</g>
<use xlink:href="#ray9" transform="rotate(-80 200,280)"/>

<!--bird-->
<path fill="#d3ac67" d="m 216.3,225 c -17.7,-15.4 -26,15.6 -40,29.9 	

	c -11.8,15.9 -33.3,24.9 -52,17.8 	c -7.9,-2.8 -16.4,-6.2 -24,-0.5 	c -7.4,4.3 -15.6,7.2 -21,9 
	c 3.7,1.9 7.1,4.3 13.8,1.8 		c 7.5,-3.1 17.9,-4.3 24,1 		c 5.1,4.2 8.7,9.4 21.8,8.5 		c -3.4,9.4 -10,13.5 -22.8,7.2 
	c -7.8,-3.8 -16.6,-7.9 -31.5,-0.2 	c -3.8,2.1 -6.5,10.8 1.5,8 		c 11.5,-3.8 26.5,-2 31.2,3 		c 8,8.5 15.8,8.1 23.5,5.8 
	c -2.7,7.1 -8.9,11.3 -23.5,8.8 		c -9,-2.2 -18,-7.5 -28.2,-0.5 		c 10.4,0.4 18.4,3.6 25.5,8 		c 6.5,3.9 16.9,4 27,0.2 
	c -3.5,11.1 -11.9,15.4 -26,11.5 	c -15.9,-5 -21.2,-2.4 -23,4.5 		l -19,-50 v-36 				c 18.6,-6.6 32.3,-21.3 56.2,-7.5 

	c 23.5,11.8 45,-0.5 51.2,-14.2 		c 16.7,-40.1 42.5,-29.3 48.1,-13.5 	c -5.8,2.4 -12.1,5.9 -10.1,13.5 	c 6.2,13.7 27.7,26.0 51.2,14.2 

	c 23.9,-13.8 37.6,0.9 56.2,7.5 		v36 l -19,50 				c -1.8,-6.9 -7.1,-9.5 -23.0,-4.5 	c -14.1,3.9 -22.5,-0.4 -26.0,-11.5 
	c 10.1,3.8 20.5,3.7 27.0,-0.2 		c 7.1,-4.4 15.1,-7.6 25.5,-8.0 		c -10.2,-7.0 -19.2,-1.7 -28.2,0.5 	c -14.6,2.5 -20.8,-1.7 -23.5,-8.8 
	c 7.7,2.3 15.5,2.7 23.5,-5.8 		c 4.7,-5.0 19.7,-6.8 31.2,-3.0 		c 8.0,2.8 5.3,-5.9 1.5,-8.0 		c -14.9,-7.7 -23.7,-3.6 -31.5,0.2 
	c -12.8,6.3 -19.4,2.2 -22.8,-7.2 	c 13.1,0.9 16.7,-4.3 21.8,-8.5 		c 6.1,-5.3 16.5,-4.1 24.0,-1.0 		c 6.7,2.5 10.1,0.1 13.8,-1.8 
	c -5.4,-1.8 -13.6,-4.7 -21.0,-9.0 	c -7.6,-5.7 -16.1,-2.3 -24.0,0.5 	c -18.7,7.1 -40.2,-1.9 -52.0,-17.8 	

	c -8,-7 -15,-20.5 -6,-29.5 z" />

<!--side-->
<path id="side" fill="#d3ac67" 
	d="m 75,263 v-13.2 l-31.3,-4.4 v81.7 c 3.1,7 11.3,28.5 51,24.6 l -4.5,-7 c -21.4,-2.5 -26,-8.1 -27.6,-14.2 h20 l -1.9,-4.7 
	c -18.5,-1 -20.8,-10 -23.3,-17.6 l 19.9,1.7 l -2.3,-6.6 c -20.6,-3.8 -19.5,-14.1 -19.4,-24.1 
	l 18.1,8.9 -1.2,-8.8 c -16.2,-4.9 -17.6,-14.5 -15.6,-25 z" />
<use xlink:href="#side" transform="scale(-1,1) translate(-400,0)"/>

<!--bottom-->
<path fill="#d3ac67" d="m 200,411 
	l -37.5,-12 l -7.6,26.6 c 11.7,1.4 24.5,0.8 45.1,-14.6 
	c 20.6,15.4 33.4,16.0 45.1,14.6 l -7.6,-26.6 l -37.5,12 z" />
<path fill="#d3ac67" d="m 200,417 c -9.4,10.3 -22.5,13.1 -34.8,17.8 h69.6 c -12.3,-4.7 -25.4,-7.5 -34.8,-17.8 z" />

<!--circles-->
<path style="fill:none;stroke:#d3ac67;stroke-width:12px" d="m76.45,261 a125,125,0,1,0,247.1,0"/>
<path style="fill:none;stroke:#d3ac67;stroke-width:12px" d="m112.03,261 a90,90,0,0,1,175.94,0"/>

<!--center-->
<path style="fill:white;stroke:#d3ac67;stroke-width:4px" d="m200,397 l-15,-15 v-70 l15,-15 l15,15 v70 l-15,15 z"/>
<path style="fill:#eb2128;stroke:#d3ac67;stroke-width:6px" d="m200,297 l-20,-20 l-20,20 v59 l25,25 v-69 l15,-15 z"/>
<path style="fill:black;stroke:#d3ac67;stroke-width:6px" d="m200,297 l20,-20 l20,20 v59 l-25,25 v-69 l-15,-15 z"/>

<path style="fill:none;stroke:#d3ac67;stroke-width:6px" d="M185,382 a65,65,0,0,0,0,-70 		M215,382 a65,65,0,0,1,0,-70"/>
<path style="fill:none;stroke:#d3ac67;stroke-width:3px" d="M160,356 a40,40,0,0,0,0,-59 		M240,356 a40,40,0,0,1,0,-59"/>




<!--letters-->
<g style="fill:white;stroke:none">
  <!--Vilnogirsk-->
<path id="V" transform="scale(0.05,-0.05) translate(500,-1400)" 
	d="M441 417c115 -57 175 -141 175 -238c0 -126 -80 -179 -246 -179 h-324 v28 c31 2 47 24 47 63 v481 
	c0 39 -16 60 -47 62 v28 h369 c105 0 156 -23 156 -89 c0 -56 -44 -105 -130 -156z
	M269 338 v-189 c0 -56 8 -81 50 -81 c71 0 115 60 115 166 c0 58 -23 113 -63 150 c-35 -20 -69 -35 -102 -46z
	M269 403 c91 32 140 88 140 139 c0 38 -25 58 -72 58c-53 0 -68 -15 -68 -65 v-132 z"/>
<path id="I" transform="scale(0.05,-0.05) translate(1150,-1400)" 
	d="M46 662 h269 v-28 c-31 -2 -46 -23 -46 -62 v-481 c0 -40 15 -61 46 -63 v-28 h-269 v28 c31 2 47 24 47 63 v481 c0 39 -16 60 -47 62 v28z"/>
<path id="L" transform="scale(0.05,-0.05) translate(1550,-1400)" 
	d="M290 662 h274 v-28 c-13 0 -20 -9 -20 -24 v-558 c 0,-15 7,-24 20,-24 v-28 h-245 v28 c 13,0 20,9 20,24 v500 h-20 
	c -70,-40 -207,-350 -207,-484 c0 -26 13 -38 39 -40 v-28 h-178 v28 c37,4 70,43 70,113 c 0,100 70,250 150,429 c6 22 10 36 10 43 c0 13 -8 21 -21 21 v28 z"/>
<use xlink:href="#R" transform="scale(1,-1) translate(-139,-107)"/>
<path id="N" transform="scale(0.05,-0.05) translate(2750,-1400)" 
	d="M46 662 h269 v-28 c-31 -2 -46 -23 -46 -62 v-90 h157 v90 c0 39 -15 60 -46 62 v28 h268 v-28 c-31 -2 -46 -23 -46 -62 v-481 c0 -40 15 -61 46 -63 v-28 h-268 v28 
	c31 2 46 24 46 63 v328 h-157 v-328 c0 -40 15 -61 46 -63 v-28 h-269 v28 c31 2 47 24 47 63 v481 c0 39 -16 60 -47 62 v28 z"/>
<path id="O" transform="scale(0.05,-0.05) translate(3400,-1400)" 
	d="M25 322 c0 213 132 351 316 351 c181 0 301 -127 301 -342 c0 -98 -33 -185 -90 -247 c-56 -61 -136 -96 -218 -96 c-189 0 -309 128 -309 334 z 
	M325 611 c-79 0 -116 -71 -116 -214 c0 -230 42 -344 131 -344 c79 0 116 71 116 216 c0 229 -42 342 -131 342 z"/>
<path id="G" transform="scale(0.05,-0.05) translate(4050,-1400)" 
	d="M491 679 l33 -221 l-13 -2 c-26 96 -91 150 -180 150 c-58 0 -62 -23 -62 -73 v-442 
	c0 -40 15 -61 46 -63 v-28 h-269 v28 c31 2 47 24 47 63 v481 c0 39 -16 60 -47 62 v28 h391 c25 0 42 4 54 17 z"/>
<use xlink:href="#I" transform="translate(171,0)"/>
<path id="R" transform="scale(0.05,-0.05) translate(4950,-1400)" 
	d="M46 662 h359 c116 0 170 -20 170 -109 c0 -111 -102 -189 -306 -231 v-231 c0 -40 15 -61 46 -63 v-28h-269 v28 c31 2 47 24 47 63 v481 c0 39 -16 60 -47 62 v28 z 
	M269 382 c86 19 133 74 133 148 c0 52 -24 76 -78 76 c-44 0 -55 -19 -55 -64 v-160 z"/>
<path id="S" transform="scale(0.05,-0.05) translate(5550,-1400)" 
	d="M492 677 l30 -251l-12 -1 c-31 121 -80 180 -154 180 c-88 0 -143 -79 -143 -226 c0 -205 85 -320 192 -320 c65 0 110 43 140 132l12 -4 l-53 -202 
	c-9 8 -18 11 -29 11 c-16 0 -52 -8 -106 -8 c-214 0 -344 136 -344 361 c0 202 113 325 289 325 c62 0 107 -16 136 -16 c18 0 32 6 42 19 z"/>
<use xlink:href="#R" transform="scale(1,-1) translate(60,-107)"/>
<path id="K" transform="scale(0.05,-0.05) translate(6750,-1400)" 
	d="M46 662 h269 v-28 c-31 -2 -46 -23 -46 -62 v-155 l121 148 c16 20 27 33 27 47 s-8 22 -24 22 v28 h218 v-28h-2 c-36 0 -91 -34 -156 -106 l-37 -41 
	c70 -89 121 -211 163 -368 c16 -58 19 -89 70 -91 v-28 h-279 v28 c23 0 34 15 34 46 c0 49 -27 153 -97 292 l-38 -46 v-229 
	c0 -40 15 -61 46 -63 v-28 h-269 v28 c31 2 47 24 47 63 v481 c0 39 -16 60 -47 62 v28 z"/>

  <!--1956-->
<path id="d1" transform="scale(0.04,-0.04) translate(3800,-12000)" 
	d="M364 153 c0 -105 22 -128 162 -130 v-23 h-479 v23 c140 2 162 25 162 130 v332 c0 75 -11 97 -77 97 c-17 0 -48 -2 -90 -10l-4 20 l326 82 v-521 z"/>
<path id="d9" transform="scale(0.04,-0.04) translate(4400,-12000)" 
	d="M260 611 c-53 0 -91 -57 -91 -157 c0 -101 38 -157 91 -157 s90 57 90 157 s-37 157 -90 157 z 
	M47 23 l31 184 l11 -2 c-1 -12 -1 -20 -1 -22 c0 -77 45 -130 112 -130 c98 0 161 90 164 256 c-33 -56 -87 -87 -152 -87 c-110 0 -198 93 -198 217 
	c0 135 103 235 248 235 c160 0 260 -124 260 -329 c0 -216 -127 -357 -310 -357 c-51 0 -107 12 -165 35 z"/>
<path id="d5" transform="scale(0.04,-0.04) translate(5000,-12000)" 
	d="M90 676 c18 -13 35 -14 57 -14 h230 c29 0 48 0 61 12 l-38 -160 c-4 20 -15 27 -38 27 h-201 c0 -37 -4 -72 -11 -104 c43 19 85 29 126 29 
	c145 0 239 -91 239 -226 c0 -152 -113 -253 -293 -253 c-73 0 -139 16 -195 49 l55 165l10 -4 c-2 -10 -2 -18 -2 -26 c0 -67 43 -114 107 -114 
	c82 0 144 65 144 163 c0 77 -51 131 -129 131 c-56 0 -114 -26 -165 -76 c35 120 52 223 52 307 c0 29 -3 60 -9 94 z"/>
<path id="d6" transform="scale(0.04,-0.04) translate(5600,-12000)" 
	d="M497 639 l-31 -184 l-11 1 v15 c0 88 -42 138 -116 138 c-92 0 -156 -91 -159 -256 c33 56 87 86 152 86 c110 0 198 -92 198 -216 
	c0 -135 -103 -235 -248 -235 c-160 0 -260 123 -260 328 c0 216 127 358 310 358 c51 0 106 -12 165 -35 z 
	M284 365 c-53 0 -90 -57 -90 -158 c0 -100 37 -157 90 -157 s91 57 91 157 s-38 158 -91 158 z"/>
</g>

</svg>