<?xml version="1.0" standalone="no"?>
<!DOCTYPE svg PUBLIC "-//W3C//DTD SVG 20010904//EN"
 "http://www.w3.org/TR/2001/REC-SVG-20010904/DTD/svg10.dtd">
<svg version="1.0" xmlns="http://www.w3.org/2000/svg"
 width="344.000000pt" height="105.000000pt" viewBox="0 0 344.000000 105.000000"
 preserveAspectRatio="xMidYMid meet">

<g transform="translate(0.000000,105.000000) scale(0.100000,-0.100000)"
fill="red" stroke="none">
<path d="M585 782 c-49 -8 -114 -14 -143 -14 -44 1 -53 -1 -48 -13 3 -8 -6
-45 -20 -82 -52 -137 -124 -364 -119 -373 14 -23 35 -8 45 33 16 62 89 274
117 338 l25 57 94 12 c52 7 96 11 98 9 2 -2 -6 -38 -19 -79 -72 -229 -94 -348
-68 -357 15 -5 14 -6 38 102 18 82 49 185 86 288 16 42 26 57 40 57 28 0 23
19 -7 30 -14 6 -26 10 -27 9 -1 -1 -42 -8 -92 -17z"/>
<path d="M1474 769 c-19 -21 -18 -21 2 -38 21 -17 21 -17 2 -55 -22 -43 -17
-57 12 -31 29 26 55 112 40 130 -17 21 -34 19 -56 -6z"/>
<path d="M1575 598 c-36 -10 -64 -46 -72 -93 -4 -28 -1 -38 20 -58 25 -23 26
-25 10 -48 -23 -32 -44 -48 -65 -49 -22 0 -23 -13 -4 -29 20 -17 45 -2 94 55
28 33 45 45 56 41 15 -6 15 -9 1 -36 -18 -37 -19 -57 -2 -64 9 -3 22 16 39 55
l27 59 -27 12 c-15 6 -28 12 -30 13 -2 1 6 21 18 44 39 76 11 119 -65 98z m58
-24 c7 -7 -11 -48 -37 -87 -25 -37 -60 -34 -64 6 -5 45 73 109 101 81z"/>
<path d="M785 536 c-49 -51 -98 -144 -93 -178 2 -17 10 -24 31 -26 31 -4 59
12 116 63 l38 34 16 -35 c19 -39 61 -64 79 -46 8 8 4 14 -15 23 -36 17 -53 62
-40 110 9 36 8 40 -21 69 -18 16 -40 30 -51 30 -10 0 -37 -20 -60 -44z m91
-11 c8 -20 -13 -51 -73 -108 -70 -68 -92 -63 -53 13 44 86 111 136 126 95z"/>
<path d="M2213 561 c-17 -11 -45 -40 -63 -65 -66 -97 -76 -166 -24 -166 35 0
62 15 111 63 l42 40 10 -25 c13 -34 50 -68 73 -68 25 0 22 23 -4 35 -37 16
-53 60 -39 106 11 37 10 40 -21 69 -39 35 -44 36 -85 11z m65 -48 c2 -16 -13
-40 -55 -83 -85 -87 -124 -80 -63 12 63 95 111 124 118 71z"/>
<path d="M1761 488 c-38 -136 -17 -187 41 -102 75 108 106 131 94 72 -18 -92
-19 -108 -3 -108 8 0 25 16 38 36 26 43 70 85 81 78 4 -3 8 -27 8 -54 0 -43
10 -60 35 -60 9 0 -4 121 -15 135 -18 22 -47 18 -76 -10 -30 -30 -34 -31 -27
-6 7 29 -14 61 -42 61 -16 0 -37 -15 -64 -47 -44 -52 -49 -49 -26 18 17 46 14
69 -7 69 -8 0 -23 -33 -37 -82z"/>
<path d="M2493 551 c-75 -46 -109 -173 -59 -220 21 -20 28 -21 62 -12 45 12
104 46 104 60 0 16 -28 33 -35 21 -11 -17 -86 -52 -101 -46 -8 3 -14 19 -14
39 0 34 1 34 51 40 58 7 64 10 54 27 -5 8 -22 10 -46 7 -22 -3 -39 -1 -39 4 0
14 81 69 102 69 14 0 19 -6 17 -22 -4 -27 9 -51 22 -43 14 9 11 48 -7 73 -19
28 -67 29 -111 3z"/>
<path d="M3109 533 c-47 -42 -66 -76 -75 -130 -8 -54 19 -88 62 -79 95 21 181
179 126 229 -30 27 -68 21 -113 -20z m91 -35 c0 -59 -71 -148 -118 -148 -20 0
-21 33 -4 73 27 61 69 107 98 107 20 0 24 -5 24 -32z"/>
<path d="M1057 464 c-65 -89 -78 -125 -45 -123 7 0 34 34 60 75 26 40 52 74
57 74 6 0 11 -28 13 -62 2 -48 7 -64 19 -66 9 -1 20 8 26 21 13 27 71 97 82
97 4 0 5 -32 3 -70 -3 -46 0 -75 8 -85 22 -26 32 -17 25 23 -3 22 1 70 10 115
24 117 8 126 -75 42 -29 -30 -57 -52 -62 -49 -4 3 -8 19 -8 35 0 36 -16 69
-33 69 -7 0 -43 -43 -80 -96z"/>
<path d="M2754 537 c-40 -43 -125 -177 -119 -187 14 -22 32 -7 78 65 27 41 52
75 58 75 5 0 9 -24 9 -53 0 -47 12 -77 30 -77 4 0 21 22 38 48 17 26 40 56 51
66 19 18 20 17 14 -56 -5 -64 -3 -77 13 -93 19 -18 19 -17 25 61 3 44 11 96
18 117 25 76 -14 77 -90 1 l-57 -56 -7 43 c-7 42 -20 69 -34 69 -3 0 -15 -10
-27 -23z"/>
</g>
</svg>
