<?xml version="1.0" encoding="UTF-8"?> <svg xmlns="http://www.w3.org/2000/svg" width="714" height="638" viewBox="0 0 714 638" fill="none"> <path d="M276.54 9.99578L301.28 113.866L313.61 110.926L288.87 7.05578L309.35 2.17578L334.09 106.046L341.61 104.256L351.14 144.276L330.87 149.106L326.52 130.816L285.97 140.476L256.06 14.8758L276.54 9.99578Z" fill="#FDBB12"></path> <path d="M378.77 129.347L382.19 82.417L377.37 82.067C376.35 82.207 375.42 82.447 374.57 82.777C373.72 83.107 372.95 83.807 372.26 84.867C371.57 85.927 370.92 87.477 370.3 89.517C369.68 91.557 369.1 94.347 368.56 97.897L366.37 111.737C365.72 115.777 364.91 119.207 363.95 122.007C362.99 124.807 362.36 126.847 362.05 128.117L340.62 126.557C341.14 125.377 341.62 124.207 342.06 123.057C342.5 121.907 342.94 120.657 343.36 119.327C343.78 117.997 344.15 116.547 344.48 114.997C344.81 113.447 345.16 111.637 345.52 109.577L347.71 95.847C348.29 91.797 348.89 88.487 349.51 85.907C350.13 83.327 350.8 81.207 351.54 79.537C352.27 77.867 353.12 76.517 354.1 75.467C355.07 74.427 356.28 73.387 357.72 72.337L357.73 72.227C355.48 69.627 353.76 66.557 352.58 63.017C351.4 59.487 350.98 55.357 351.33 50.647L353.12 26.117C353.42 22.047 354.22 18.357 355.54 15.037C356.86 11.727 358.73 8.89704 361.17 6.55704C363.6 4.21704 366.55 2.47704 370.01 1.32704C373.47 0.177041 377.52 -0.222959 382.16 0.117041L409.16 2.08704L399.77 130.867L378.77 129.347ZM372.39 51.337C372.14 54.767 372.5 57.487 373.47 59.497C374.44 61.507 376.21 62.607 378.78 62.787L383.6 63.137L386.76 19.747L381.62 19.377C379.12 19.197 377.3 19.777 376.16 21.137C375.02 22.487 374.33 24.777 374.1 27.987L372.39 51.337Z" fill="#FDBB12"></path> <path d="M492.14 123.126L484.2 138.246C482.77 140.976 480.91 143.656 478.64 146.306C476.36 148.956 473.65 151.066 470.51 152.656C467.37 154.246 463.79 155.056 459.77 155.086C455.75 155.116 451.3 153.856 446.41 151.296C441.53 148.736 437.97 145.796 435.75 142.486C433.52 139.176 432.16 135.766 431.65 132.266C431.14 128.766 431.33 125.326 432.21 121.946C433.09 118.566 434.23 115.546 435.63 112.886L469.92 47.5358C471.32 44.8758 473.16 42.2058 475.46 39.5258C477.75 36.8458 480.47 34.7158 483.61 33.1258C486.75 31.5358 490.33 30.7258 494.35 30.6958C498.37 30.6658 502.82 31.9258 507.71 34.4858C512.59 37.0458 516.16 39.9958 518.42 43.3258C520.68 46.6558 522.06 50.0658 522.57 53.5658C523.08 57.0658 522.89 60.5058 522.01 63.8858C521.13 67.2658 519.97 70.3158 518.54 73.0458L510.4 88.5458L491.76 78.7658L499.95 63.1658C500.32 62.4658 500.71 61.6458 501.13 60.6858C501.55 59.7358 501.78 58.7658 501.81 57.7658C501.85 56.7758 501.63 55.7958 501.17 54.8258C500.71 53.8558 499.78 53.0058 498.39 52.2758C496.99 51.5458 495.77 51.2658 494.71 51.4358C493.65 51.6058 492.74 51.9958 491.97 52.6058C491.2 53.2158 490.55 53.9658 490 54.8458C489.45 55.7358 489 56.5258 488.63 57.2258L454.38 122.476C454.01 123.176 453.61 124.016 453.18 124.996C452.74 125.976 452.48 126.976 452.4 127.986C452.31 128.996 452.5 129.986 452.97 130.956C453.43 131.926 454.36 132.776 455.76 133.506C457.15 134.236 458.38 134.516 459.44 134.346C460.5 134.176 461.43 133.756 462.23 133.076C463.03 132.406 463.7 131.626 464.25 130.736C464.79 129.846 465.25 129.056 465.62 128.356L473.51 113.326L492.14 123.126Z" fill="#FDBB12"></path> <path d="M569.24 108.846L496.2 186.876L480.91 172.556L553.95 94.5258L542.42 83.7358L557.69 67.4258L595.96 103.246L580.69 119.556L569.24 108.846Z" fill="#FDBB12"></path> <path d="M592.9 142.697C595.47 141.127 598.42 139.777 601.76 138.657C605.1 137.537 608.53 137.097 612.04 137.337C615.55 137.587 619.04 138.717 622.51 140.757C625.98 142.787 629.15 146.157 632.03 150.857C634.91 155.557 636.46 159.917 636.7 163.937C636.93 167.947 636.37 171.587 635.01 174.857C633.65 178.127 631.72 180.977 629.24 183.427C626.75 185.877 624.19 187.907 621.57 189.507L558.72 227.987C556.09 229.597 553.12 230.947 549.81 232.057C546.5 233.157 543.08 233.577 539.55 233.297C536.02 233.017 532.52 231.867 529.05 229.837C525.58 227.807 522.41 224.437 519.53 219.737C516.65 215.037 515.1 210.687 514.89 206.707C514.68 202.727 515.25 199.097 516.61 195.827C517.97 192.557 519.89 189.697 522.38 187.257C524.87 184.807 527.4 182.797 529.96 181.227L592.9 142.697ZM614.9 161.347C614.08 160.007 613.17 159.137 612.17 158.737C611.17 158.337 610.19 158.207 609.22 158.337C608.25 158.467 607.3 158.777 606.38 159.257C605.46 159.737 604.66 160.187 603.99 160.597L541.14 199.077C540.47 199.487 539.69 200.007 538.81 200.627C537.93 201.247 537.2 201.967 536.61 202.797C536.02 203.617 535.68 204.567 535.58 205.637C535.48 206.707 535.84 207.917 536.66 209.257C537.48 210.597 538.39 211.467 539.39 211.867C540.39 212.267 541.41 212.397 542.46 212.257C543.51 212.117 544.49 211.807 545.42 211.327C546.34 210.847 547.14 210.397 547.81 209.987L610.66 171.507C611.33 171.097 612.09 170.587 612.94 169.987C613.79 169.387 614.48 168.667 615.02 167.827C615.56 166.997 615.88 166.037 615.98 164.977C616.08 163.897 615.72 162.687 614.9 161.347Z" fill="#FDBB12"></path> <path d="M665.81 231.386L663.21 232.066L655.22 233.366L655.12 233.396C658.96 233.356 662.21 234.046 664.87 235.456C667.53 236.876 669.31 239.276 670.19 242.676C671.22 246.626 671.16 250.176 670.02 253.326C668.88 256.476 667.14 259.236 664.8 261.626C662.46 264.016 659.74 265.996 656.64 267.586C653.54 269.176 650.5 270.356 647.52 271.126L576.21 289.716C573.23 290.496 570 290.946 566.52 291.076C563.04 291.206 559.7 290.816 556.5 289.916C553.3 289.006 550.44 287.466 547.91 285.276C545.38 283.086 543.61 280.056 542.59 276.176C541.69 272.706 542 269.726 543.53 267.216C545.06 264.706 547.15 262.586 549.81 260.866L543.87 263.196L502.81 273.896L497.5 253.526L660.5 211.016L665.81 231.386ZM649.38 242.446C649.04 241.126 648.48 240.126 647.71 239.436C646.94 238.746 646.08 238.286 645.13 238.056C644.18 237.826 643.22 237.736 642.24 237.816C641.26 237.886 640.35 238.026 639.52 238.246L567.38 257.056C566.55 257.276 565.67 257.596 564.75 258.016C563.82 258.446 563.01 258.986 562.29 259.656C561.58 260.326 561.03 261.136 560.65 262.086C560.27 263.036 560.26 264.206 560.62 265.586C561.02 267.106 561.63 268.186 562.46 268.826C563.29 269.456 564.22 269.846 565.26 269.986C566.3 270.126 567.32 270.096 568.35 269.906C569.37 269.716 570.27 269.516 571.03 269.316L642.13 250.786C642.89 250.586 643.77 250.326 644.75 249.996C645.74 249.666 646.65 249.186 647.48 248.566C648.32 247.936 648.94 247.146 649.36 246.186C649.76 245.216 649.77 243.966 649.38 242.446Z" fill="#FDBB12"></path> <path d="M547.41 300.726L675.92 288.136L677.97 309.086L549.46 321.676L547.41 300.726ZM699.48 284.106C703.61 283.706 706.79 284.326 709 285.976C711.21 287.626 712.53 290.626 712.96 294.976C713.4 299.466 712.69 302.716 710.84 304.736C708.99 306.756 705.99 307.966 701.86 308.366C697.8 308.766 694.68 308.156 692.51 306.526C690.34 304.906 689.03 301.846 688.59 297.356C688.16 293.006 688.86 289.806 690.67 287.766C692.48 285.726 695.42 284.496 699.48 284.106Z" fill="#FDBB12"></path> <path d="M550.45 326.355L677.24 350.795L673.25 371.465L620.41 361.275L617.99 373.825L670.83 384.015L666.84 404.685L540.05 380.245L544.04 359.575L595.41 369.475L597.83 356.925L546.46 347.025L550.45 326.355Z" fill="#FDBB12"></path> <path d="M643.75 461.256L597.21 436.446L595.19 440.236L636.38 475.096L626.42 493.766L576.83 449.556L511.52 434.826L522.33 414.536L575.24 429.226L577.11 425.716L529.81 400.496L539.66 382.016L653.6 442.756L643.75 461.256Z" fill="#FDBB12"></path> <path d="M489.35 455.686L497.08 463.296C492.67 456.136 492.68 450.316 497.1 445.826C499.81 443.066 502.75 441.286 505.91 440.476C509.07 439.666 512.32 439.656 515.67 440.436C519.02 441.216 522.38 442.696 525.77 444.876C529.15 447.046 532.48 449.746 535.75 452.966L541.11 458.246C544.99 462.066 548.33 465.736 551.15 469.256C553.96 472.776 555.95 476.166 557.12 479.426C558.29 482.686 558.51 485.896 557.8 489.066C557.09 492.236 555.18 495.406 552.06 498.566C550 500.656 548.04 502.216 546.17 503.246C544.3 504.276 542.56 505.046 540.95 505.566L560.55 524.856C561.72 526.016 562.85 527.016 563.92 527.866C564.99 528.716 566.03 529.346 567.05 529.736C568.07 530.136 569.07 530.216 570.05 529.976C571.04 529.736 572.06 529.086 573.11 528.016C574.02 527.096 574.57 526.156 574.76 525.196C574.96 524.236 574.92 523.296 574.66 522.386C574.4 521.476 573.96 520.616 573.35 519.816C572.74 519.006 572.12 518.306 571.51 517.706L559.57 505.946L574.34 490.946L585.52 501.946C588.17 504.556 590.42 507.456 592.27 510.626C594.12 513.806 595.27 517.126 595.73 520.586C596.19 524.046 595.81 527.596 594.6 531.226C593.39 534.856 591.05 538.436 587.58 541.956C583.81 545.786 580.06 548.366 576.32 549.716C572.58 551.056 568.98 551.506 565.51 551.056C562.04 550.596 558.72 549.446 555.57 547.596C552.42 545.746 549.51 543.516 546.86 540.906L475.06 470.216L489.35 455.686ZM507.57 463.666C505.96 465.296 505.44 467.096 506.02 469.076C506.59 471.046 507.69 472.836 509.33 474.446L527.24 492.086C528.36 492.276 529.43 492.236 530.47 491.946C531.51 491.656 532.63 490.906 533.83 489.676C534.84 488.656 535.4 487.596 535.51 486.506C535.63 485.416 535.44 484.326 534.95 483.246C534.46 482.166 533.77 481.076 532.87 479.996C531.97 478.916 531.04 477.896 530.07 476.946L518.59 465.646C516.65 463.736 514.79 462.456 513.01 461.816C511.24 461.156 509.42 461.786 507.57 463.666Z" fill="#FDBB12"></path> <path d="M479.26 613.056C470.76 616.486 463.56 617.256 457.65 615.356C451.75 613.456 447.4 609.056 444.61 602.146L436.08 581.026C434.6 577.376 434.14 573.876 434.68 570.526C435.22 567.176 436.42 564.086 438.29 561.246C434.76 560.356 431.54 558.726 428.61 556.356C425.68 553.986 423.33 550.606 421.56 546.226L414.16 527.896C412.42 523.576 411.43 519.706 411.21 516.286C410.99 512.866 411.53 509.766 412.84 506.996C414.15 504.226 416.21 501.766 419.02 499.636C421.82 497.496 425.35 495.576 429.6 493.856L454.8 483.676L503.17 603.396L479.26 613.056ZM442.25 541.226C443.38 544.016 444.78 545.806 446.45 546.596C448.12 547.386 449.99 547.366 452.04 546.536L456.72 544.646L442.8 510.186L438.12 512.076C436.13 512.886 434.76 514.086 434.02 515.706C433.28 517.316 433.56 519.716 434.84 522.906L442.25 541.226ZM476.4 593.356L464.05 562.776L459.97 564.426C457.65 565.366 456.26 566.856 455.81 568.886C455.36 570.926 455.6 573.106 456.54 575.426L462.94 591.266C463.8 593.386 465.05 594.756 466.68 595.376C468.31 595.996 470.2 595.866 472.32 595.006L476.4 593.356Z" fill="#FDBB12"></path> <path d="M356.82 636.597L356.89 633.917L357.85 625.887V625.777C356.82 629.477 355.26 632.407 353.16 634.577C351.06 636.747 348.26 637.777 344.75 637.687C340.67 637.577 337.28 636.547 334.57 634.577C331.86 632.607 329.69 630.167 328.04 627.267C326.4 624.357 325.24 621.197 324.58 617.777C323.92 614.357 323.62 611.107 323.7 608.027L325.6 534.357C325.68 531.277 326.14 528.047 326.98 524.667C327.82 521.287 329.12 518.187 330.87 515.367C332.63 512.547 334.91 510.227 337.71 508.397C340.52 506.577 343.92 505.707 347.93 505.817C351.51 505.907 354.29 507.037 356.28 509.207C358.27 511.367 359.72 513.967 360.65 517.007L360.06 510.647L361.16 468.227L382.21 468.767L377.86 637.147L356.82 636.597ZM350.75 617.737C352.11 617.777 353.23 617.517 354.1 616.967C354.97 616.417 355.66 615.717 356.14 614.867C356.63 614.017 356.97 613.117 357.18 612.157C357.38 611.197 357.5 610.287 357.52 609.427L359.45 534.897C359.47 534.037 359.41 533.107 359.25 532.097C359.1 531.087 358.8 530.147 358.36 529.277C357.92 528.407 357.29 527.657 356.48 527.027C355.67 526.397 354.55 526.067 353.12 526.027C351.55 525.987 350.34 526.277 349.5 526.897C348.66 527.517 348.03 528.307 347.61 529.267C347.19 530.227 346.93 531.217 346.83 532.257C346.73 533.297 346.67 534.207 346.65 534.997L344.75 608.447C344.73 609.237 344.74 610.147 344.79 611.187C344.84 612.227 345.04 613.237 345.41 614.207C345.78 615.187 346.37 616.007 347.17 616.667C347.99 617.347 349.18 617.697 350.75 617.737Z" fill="#FDBB12"></path> <path d="M294.06 602.847C293.12 605.707 291.74 608.637 289.91 611.657C288.09 614.677 285.76 617.227 282.92 619.307C280.09 621.387 276.69 622.777 272.73 623.467C268.77 624.157 264.17 623.647 258.93 621.917C253.69 620.197 249.69 617.877 246.91 614.957C244.14 612.047 242.21 608.907 241.14 605.537C240.06 602.167 239.68 598.747 240 595.267C240.32 591.787 240.96 588.587 241.92 585.667L264.98 515.677C265.94 512.747 267.33 509.797 269.14 506.817C270.95 503.837 273.29 501.307 276.16 499.237C279.03 497.167 282.44 495.787 286.4 495.087C290.36 494.387 294.96 494.907 300.2 496.637C305.44 498.367 309.43 500.677 312.16 503.577C314.9 506.477 316.81 509.617 317.88 512.987C318.96 516.357 319.34 519.777 319.02 523.257C318.71 526.737 318.08 529.897 317.13 532.757L294.06 602.847ZM265.22 602.847C266.72 603.337 267.97 603.417 268.99 603.067C270.01 602.727 270.84 602.187 271.5 601.457C272.16 600.727 272.68 599.887 273.07 598.917C273.46 597.957 273.78 597.097 274.03 596.347L297.09 526.357C297.34 525.607 297.59 524.717 297.86 523.667C298.13 522.627 298.22 521.597 298.14 520.587C298.06 519.577 297.71 518.637 297.09 517.757C296.47 516.877 295.42 516.187 293.92 515.697C292.42 515.207 291.17 515.127 290.15 515.477C289.13 515.817 288.27 516.387 287.56 517.167C286.85 517.947 286.3 518.827 285.9 519.787C285.51 520.747 285.19 521.607 284.94 522.357L261.88 592.347C261.63 593.097 261.38 593.977 261.12 594.987C260.86 595.997 260.8 596.987 260.93 597.977C261.06 598.957 261.43 599.897 262.04 600.777C262.67 601.677 263.72 602.357 265.22 602.847Z" fill="#FDBB12"></path> <path d="M211.84 480.986C214.88 476.646 218 473.276 221.2 470.876C224.4 468.486 227.69 466.996 231.06 466.426C234.43 465.856 237.86 466.106 241.34 467.186C244.82 468.266 248.41 470.096 252.11 472.686C258.8 477.366 262.71 483.066 263.82 489.776C264.94 496.496 262.82 503.666 257.49 511.306L247.34 525.836L230.08 513.776L240.23 499.246C243.47 494.606 243.42 491.116 240.07 488.786C238.43 487.636 236.74 487.266 235.01 487.676C233.28 488.086 231.39 489.756 229.34 492.696L219.86 506.256C218.51 508.196 217.63 509.826 217.22 511.156C216.81 512.486 216.75 513.646 217.02 514.626C217.3 515.606 217.84 516.486 218.65 517.266C219.46 518.046 220.39 518.806 221.45 519.546L226.73 523.236L214.3 541.026L208.31 536.846C206.39 535.596 204.22 535.356 201.78 536.146C199.35 536.936 196.84 539.186 194.26 542.876L186.94 553.356C185.5 555.406 184.73 557.336 184.61 559.126C184.49 560.926 185.46 562.536 187.51 563.976C189.27 565.206 190.99 565.496 192.68 564.836C194.36 564.176 195.78 563.026 196.93 561.386L207.82 545.806L225.08 557.866L215.91 570.986C213.33 574.686 210.53 577.776 207.53 580.266C204.53 582.756 201.36 584.476 198.03 585.426C194.7 586.376 191.23 586.506 187.61 585.806C183.99 585.106 180.24 583.406 176.37 580.706C172.61 578.076 169.69 575.206 167.59 572.076C165.49 568.946 164.17 565.716 163.63 562.366C163.09 559.016 163.32 555.596 164.32 552.096C165.32 548.596 167.01 545.146 169.39 541.746L174.44 534.526C178.42 528.836 182.53 524.756 186.78 522.316C191.03 519.866 195.15 518.906 199.15 519.426C196.48 515.376 195.4 511.566 195.93 507.996C196.46 504.436 198.28 500.416 201.4 495.956L211.84 480.986Z" fill="#FDBB12"></path> <path d="M112.71 520.098L114.82 518.427L121.61 514.027L121.69 513.957C118.19 515.537 114.94 516.207 111.93 515.987C108.92 515.757 106.33 514.277 104.16 511.517C101.63 508.317 100.26 505.037 100.03 501.707C99.8104 498.367 100.29 495.137 101.47 492.007C102.65 488.887 104.35 485.967 106.55 483.277C108.75 480.577 111.06 478.277 113.48 476.367L171.3 430.688C173.72 428.778 176.49 427.067 179.63 425.547C182.77 424.027 185.98 423.037 189.27 422.587C192.56 422.127 195.81 422.397 199 423.387C202.2 424.377 205.04 426.437 207.53 429.587C209.75 432.397 210.66 435.257 210.27 438.167C209.88 441.077 208.81 443.857 207.07 446.507L211.58 441.987L244.88 415.688L257.93 432.207L125.76 536.617L112.71 520.098ZM123.31 503.367C124.15 504.437 125.07 505.127 126.05 505.447C127.03 505.767 128.01 505.847 128.97 505.677C129.93 505.507 130.85 505.197 131.72 504.737C132.59 504.277 133.36 503.777 134.04 503.247L192.54 457.037C193.21 456.507 193.89 455.857 194.56 455.097C195.24 454.337 195.77 453.507 196.15 452.607C196.54 451.707 196.71 450.747 196.68 449.727C196.65 448.707 196.19 447.627 195.3 446.507C194.32 445.267 193.33 444.527 192.31 444.287C191.29 444.037 190.28 444.067 189.28 444.357C188.28 444.647 187.35 445.087 186.49 445.677C185.63 446.267 184.89 446.807 184.27 447.287L126.61 492.837C125.99 493.327 125.3 493.917 124.53 494.617C123.76 495.317 123.12 496.117 122.6 497.027C122.09 497.938 121.83 498.917 121.84 499.957C121.85 500.997 122.34 502.137 123.31 503.367Z" fill="#FDBB12"></path> <path d="M98.4801 450.249C95.6801 451.349 92.5401 452.169 89.0501 452.699C85.5601 453.229 82.1101 453.069 78.7001 452.219C75.2901 451.369 72.0501 449.649 68.9801 447.049C65.9101 444.449 63.3701 440.589 61.3401 435.459C59.3201 430.329 58.5401 425.769 59.0001 421.779C59.4601 417.779 60.6501 414.299 62.5501 411.309C64.4501 408.329 66.8401 405.849 69.7201 403.859C72.6001 401.879 75.4701 400.319 78.3301 399.189L146.88 372.139C149.74 371.009 152.9 370.189 156.36 369.669C159.81 369.159 163.26 369.339 166.68 370.219C170.11 371.099 173.35 372.839 176.42 375.439C179.49 378.039 182.03 381.909 184.06 387.039C186.08 392.169 186.86 396.719 186.38 400.669C185.9 404.629 184.71 408.099 182.81 411.089C180.91 414.069 178.52 416.559 175.64 418.539C172.77 420.519 169.93 422.059 167.13 423.169L98.4801 450.249ZM80.0301 428.089C80.6101 429.559 81.3601 430.569 82.2701 431.129C83.1901 431.689 84.1301 431.989 85.1101 432.029C86.0901 432.069 87.0701 431.929 88.0601 431.609C89.0501 431.299 89.9101 430.989 90.6501 430.699L159.2 403.649C159.93 403.359 160.79 402.989 161.76 402.519C162.73 402.059 163.58 401.479 164.3 400.769C165.02 400.059 165.52 399.189 165.81 398.149C166.09 397.109 165.95 395.859 165.37 394.399C164.79 392.939 164.05 391.919 163.13 391.359C162.21 390.799 161.23 390.489 160.17 390.449C159.11 390.409 158.09 390.539 157.1 390.849C156.11 391.169 155.25 391.469 154.51 391.759L85.9601 418.819C85.2301 419.109 84.3901 419.479 83.4501 419.929C82.51 420.379 81.7001 420.969 81.0301 421.689C80.3601 422.419 79.8801 423.299 79.59 424.339C79.3 425.369 79.4501 426.619 80.0301 428.089Z" fill="#FDBB12"></path> <path d="M0 319.188C3.38 319.268 6.57 319.508 9.54 319.908C12.52 320.308 15.17 321.028 17.48 322.058C19.79 323.088 21.67 324.558 23.12 326.448C24.57 328.338 25.42 330.788 25.66 333.788C25.96 337.428 26.95 340.348 28.64 342.538C30.33 344.738 32.52 346.418 35.2 347.608C37.88 348.788 40.96 349.538 44.44 349.868C47.92 350.198 51.59 350.288 55.46 350.148C59.33 350.008 63.28 349.738 67.3 349.338C71.33 348.938 75.23 348.578 79.01 348.268L87.36 368.488L74.19 369.568C63.27 370.468 53.77 370.728 45.69 370.348C37.61 369.968 30.87 368.818 25.47 366.888C20.07 364.958 15.94 362.178 13.09 358.528C10.24 354.878 8.59 350.278 8.13 344.708C7.92 342.208 7.17 340.498 5.87 339.558C4.57 338.628 3.13 338.078 1.53 337.918L0 319.188ZM71.42 369.798C68.42 370.048 65.18 369.918 61.69 369.408C58.2 368.908 54.94 367.748 51.92 365.958C48.9 364.158 46.3 361.568 44.11 358.188C41.93 354.808 40.61 350.378 40.16 344.878C39.71 339.378 40.28 334.788 41.88 331.098C43.48 327.408 45.63 324.418 48.31 322.108C51 319.808 54 318.118 57.33 317.058C60.66 315.998 63.85 315.338 66.92 315.088L140.36 309.048C143.43 308.798 146.69 308.918 150.15 309.428C153.61 309.938 156.85 311.108 159.87 312.938C162.9 314.778 165.5 317.378 167.68 320.758C169.86 324.138 171.18 328.568 171.63 334.068C172.08 339.568 171.5 344.138 169.9 347.788C168.3 351.438 166.15 354.418 163.47 356.728C160.79 359.038 157.78 360.718 154.45 361.778C151.13 362.838 147.96 363.498 144.97 363.738L71.42 369.798ZM60.18 343.238C60.31 344.808 60.73 345.998 61.44 346.798C62.15 347.598 62.97 348.168 63.9 348.478C64.83 348.798 65.81 348.948 66.85 348.938C67.89 348.928 68.8 348.888 69.59 348.818L143.03 342.778C143.82 342.718 144.74 342.598 145.8 342.438C146.86 342.278 147.85 341.968 148.74 341.498C149.64 341.028 150.37 340.338 150.94 339.428C151.51 338.518 151.73 337.278 151.6 335.708C151.47 334.138 151.05 332.948 150.34 332.148C149.63 331.348 148.77 330.768 147.77 330.418C146.77 330.068 145.75 329.898 144.71 329.918C143.67 329.928 142.76 329.968 141.97 330.038L68.53 336.078C67.75 336.138 66.84 336.258 65.81 336.408C64.78 336.568 63.84 336.898 62.98 337.398C62.12 337.898 61.41 338.608 60.84 339.518C60.27 340.428 60.05 341.668 60.18 343.238Z" fill="#FDBB12"></path> <path d="M46.1495 256.888L150.31 280.368L153.1 267.998L48.9395 244.528L53.5695 223.988L157.73 247.468L159.43 239.928L199.57 248.978L194.99 269.308L176.65 265.178L167.49 305.838L41.5195 277.428L46.1495 256.888Z" fill="#FDBB12"></path> <path d="M45.8598 178.716C42.1298 176.896 39.7498 174.696 38.7398 172.126C37.7198 169.556 38.1698 166.316 40.0898 162.386C42.0698 158.336 44.3798 155.936 47.0098 155.186C49.6398 154.436 52.8298 154.976 56.5598 156.806C60.2298 158.596 62.5598 160.756 63.5598 163.276C64.5598 165.796 64.0698 169.086 62.0898 173.136C60.1698 177.066 57.9098 179.426 55.2898 180.216C52.6698 181.006 49.5298 180.506 45.8598 178.716ZM184.07 244.286L68.0398 187.636L77.2798 168.716L193.31 225.366L184.07 244.286Z" fill="#FDBB12"></path> </svg> 