<?xml version="1.0" standalone="no"?>
<!DOCTYPE svg PUBLIC "-//W3C//DTD SVG 20010904//EN"
 "http://www.w3.org/TR/2001/REC-SVG-20010904/DTD/svg10.dtd">
<svg version="1.0" xmlns="http://www.w3.org/2000/svg"
 width="667.000000pt" height="667.000000pt" viewBox="0 0 667.000000 667.000000"
 preserveAspectRatio="xMidYMid meet">

<g transform="translate(0.000000,667.000000) scale(0.100000,-0.100000)"
fill="#000000" stroke="none">
<path d="M3251 6038 c-401 -1219 -568 -2515 -466 -3603 43 -452 137 -918 267
-1325 89 -276 254 -654 283 -648 9 2 46 67 85 151 255 542 432 1298 480 2052
9 144 14 395 8 395 -2 0 -55 -16 -118 -34 l-115 -34 -3 -78 c-18 -545 -117
-1168 -264 -1654 -28 -91 -53 -173 -55 -183 -7 -22 -30 -22 -37 1 -2 9 -25 82
-50 162 -129 414 -223 931 -257 1400 -14 211 -15 681 0 920 31 498 145 1211
275 1721 13 52 26 106 30 122 15 63 32 25 84 -185 89 -362 179 -829 213 -1093
6 -49 14 -93 18 -98 8 -8 199 37 213 51 17 17 -57 492 -138 882 -52 250 -143
611 -209 825 -85 279 -149 465 -162 465 -6 0 -42 -92 -82 -212z"/>
<path d="M1550 4294 c0 -800 1 -845 18 -840 9 3 47 13 85 22 37 9 67 20 67 24
0 4 16 11 35 14 l35 7 0 474 c0 261 3 475 8 474 9 0 171 -217 240 -323 206
-312 296 -657 262 -1006 -27 -283 -121 -518 -276 -689 -51 -57 -189 -165 -224
-176 -19 -6 -20 -15 -20 -140 l0 -133 38 -13 c122 -39 264 -136 344 -233 89
-107 166 -292 180 -431 l3 -30 -275 0 -275 0 -3 127 c-1 71 -4 128 -6 128 -13
0 -204 -54 -218 -61 -16 -9 -18 -30 -18 -224 l0 -215 521 0 522 0 -6 163 c-3
89 -12 195 -21 235 -62 285 -204 500 -426 647 -41 27 -76 50 -78 51 -2 1 41
46 95 100 237 239 353 507 384 895 26 317 -34 635 -170 909 -81 161 -127 232
-339 514 -88 118 -161 226 -189 283 -43 87 -46 98 -51 193 l-5 100 -118 0
-119 0 0 -846z"/>
<path d="M4868 5052 c-6 -134 -48 -213 -274 -517 -242 -326 -370 -586 -433
-877 -45 -208 -47 -509 -5 -730 35 -184 132 -414 226 -539 121 -159 265 -280
423 -356 l60 -28 0 -355 0 -355 -383 -3 -383 -2 3 -118 3 -117 500 0 500 0 3
1153 c1 811 -1 1152 -9 1152 -5 0 -59 -14 -120 -32 l-109 -31 -1 -496 c-1
-273 -1 -502 0 -509 5 -40 -84 21 -195 132 -183 184 -278 413 -304 734 -11
135 -1 315 26 444 51 254 179 508 415 823 235 313 299 450 299 637 l0 78 -119
0 -119 0 -4 -88z"/>
</g>
</svg>
